<svg width="24" height="24" viewBox="0 0 24 24" fill="none" xmlns="http://www.w3.org/2000/svg">
<path d="M5.82721 5.82821C5.48321 6.17721 5.25721 6.66721 5.13121 7.59821C5.00221 8.56321 5.00121 9.84121 5.00121 11.6802V12.3202C5.00121 14.1562 5.00221 15.4332 5.13121 16.3972C5.25621 17.3292 5.48321 17.8222 5.82821 18.1742C6.17821 18.5172 6.66821 18.7442 7.59821 18.8692C8.56321 18.9982 9.84121 19.0002 11.6802 19.0002H12.3202C14.1562 19.0002 15.4332 18.9982 16.3982 18.8692C17.3292 18.7442 17.8222 18.5172 18.1742 18.1722C18.5172 17.8232 18.7442 17.3332 18.8692 16.4022C18.9992 15.4372 19.0002 14.1592 19.0002 12.3202V11.6802C19.0002 9.84421 18.9982 8.56721 18.8702 7.60321C18.7442 6.67121 18.5172 6.17821 18.1722 5.82621C17.8232 5.48321 17.3332 5.25621 16.4022 5.13121C15.4372 5.00221 14.1592 5.00021 12.3202 5.00021H11.6802C9.84421 5.00021 8.56721 5.00221 7.60321 5.13121C6.67121 5.25621 6.17921 5.48321 5.82721 5.82821ZM11.6802 3.00021H12.3202C13.7652 3.00021 15.2322 2.95721 16.6672 3.14921C17.8232 3.30421 18.8022 3.63521 19.5842 4.40921L19.5922 4.41821C20.3652 5.20221 20.6972 6.18121 20.8522 7.33821C21.0432 8.77121 21.0002 10.2372 21.0002 11.6802V12.3202C21.0002 13.7642 21.0442 15.2312 20.8512 16.6672C20.6972 17.8232 20.3652 18.8022 19.5912 19.5842L19.5822 19.5922C18.7992 20.3652 17.8202 20.6962 16.6622 20.8522C15.2292 21.0432 13.7632 21.0002 12.3202 21.0002H11.6802C10.2362 21.0002 8.76921 21.0432 7.33421 20.8512C6.17721 20.6962 5.19821 20.3652 4.41721 19.5912L4.40821 19.5822C3.63621 18.7982 3.30421 17.8192 3.14921 16.6622C2.95721 15.2302 3.00021 13.7642 3.00021 12.3202V11.6802C3.00021 10.2362 2.95721 8.76921 3.15021 7.33321C3.30421 6.17721 3.63621 5.19821 4.41021 4.41621L4.41821 4.40821C5.20221 3.63521 6.18121 3.30421 7.33821 3.14821C8.77221 2.95821 10.2382 3.00021 11.6802 3.00021ZM6.03621 8.47821C6.13221 13.1582 8.47221 15.9662 12.5762 15.9662H12.8162V13.2902C14.3222 13.4402 15.4622 14.5442 15.9182 15.9662H18.0482C17.8299 15.1581 17.4426 14.4055 16.9121 13.7581C16.3815 13.1106 15.7196 12.5831 14.9702 12.2102C15.6416 11.8012 16.2215 11.2582 16.6737 10.615C17.1258 9.97188 17.4406 9.24243 17.5982 8.47221H15.6662C15.2462 9.96021 13.9982 11.3102 12.8162 11.4362V8.47821H10.8782V13.6622C9.67821 13.3622 8.16621 11.9102 8.10021 8.47821H6.03621Z" fill="black"/>
</svg>
